<svg width="16" height="16" viewBox="0 0 16 16" fill="none" xmlns="http://www.w3.org/2000/svg">
<path d="M8 3.25C5.38084 3.25 3.25 5.38084 3.25 8C3.25 10.6192 5.38084 12.75 8 12.75C10.6192 12.75 12.75 10.6192 12.75 8C12.75 5.38084 10.6192 3.25 8 3.25ZM8 11.75C7.25832 11.75 6.5333 11.5301 5.91661 11.118C5.29993 10.706 4.81928 10.1203 4.53545 9.43506C4.25162 8.74984 4.17736 7.99584 4.32206 7.26841C4.46675 6.54098 4.8239 5.8728 5.34835 5.34835C5.8728 4.8239 6.54098 4.46675 7.26841 4.32206C7.99584 4.17736 8.74984 4.25162 9.43506 4.53545C10.1203 4.81928 10.706 5.29993 11.118 5.91661C11.5301 6.5333 11.75 7.25832 11.75 8C11.7489 8.99422 11.3534 9.94739 10.6504 10.6504C9.94739 11.3534 8.99422 11.7489 8 11.75Z" fill="black"/>
<path d="M7.5 0.5H8.5V2H7.5V0.5Z" fill="black"/>
<path d="M7.5 14H8.5V15.5H7.5V14Z" fill="black"/>
<path d="M14 7.5H15.5V8.5H14V7.5Z" fill="black"/>
<path d="M0.5 7.5H2V8.5H0.5V7.5Z" fill="black"/>
<path d="M12.1465 12.8536L12.8536 12.1465L13.8536 13.1465L13.1465 13.8536L12.1465 12.8536Z" fill="black"/>
<path d="M2.14647 2.85356L2.85359 2.14644L3.85359 3.14644L3.14647 3.85356L2.14647 2.85356Z" fill="black"/>
<path d="M2.14641 13.1465L3.14641 12.1465L3.85353 12.8536L2.85353 13.8536L2.14641 13.1465Z" fill="black"/>
<path d="M12.1465 3.14644L13.1465 2.14644L13.8536 2.85356L12.8536 3.85356L12.1465 3.14644Z" fill="black"/>
</svg>
