<svg xmlns="http://www.w3.org/2000/svg" width="210" height="37" fill="none"><path d="M94.924 13.816c0 2.767-3.9 3.797-7.444 4.163.193-3.694 2.117-6.132 4.9-6.132.98 0 2.534.534 2.534 1.97zm-2.928 10.87c-1.63 0-3.5-.817-4.055-2.596 1.503-.146 4.277-.457 6.733-1.505 3.34-1.426 5.035-3.72 5.035-6.82 0-3.798-2.678-5.976-7.35-5.976-2.8 0-5.307 1.097-7.062 3.1-1.7 1.92-2.62 4.58-2.62 7.495 0 6.44 3.543 10.44 9.246 10.44 2.02 0 4.646-.68 4.75-.707 1.34-.332 2.135-1.132 2.435-2.446l.892-3.9S96.82 24.7 91.996 24.7zm-10.9-21.604c0-1.617-1.176-3.08-3.058-3.08L76.378 0l.007 24.948c0 1.617 1.176 3.08 3.058 3.08h1.66L81.096 3.08zm-14.73 20.926c-3.58 0-3.994-3.5-3.994-6.15 0-1.85.368-6.15 3.777-6.15 3.6 0 4.14 3.63 4.14 5.792 0 4.377-1.283 6.505-3.922 6.505zM70.043 0v9.194c-1.18-1.026-2.848-1.643-4.594-1.643-2.473 0-4.517 1-5.9 2.922-1.334 1.83-2.04 4.46-2.04 7.607 0 3.015.715 5.522 2.07 7.25 1.38 1.763 3.4 2.695 5.8 2.695 2.15 0 3.837-.63 5.033-1.874a2.55 2.55 0 0 0 2.282 1.518h2.1V3.013C74.782 1.352 73.406 0 71.715 0h-1.672zM51.195 17.503c0 4.377-1.283 6.505-3.922 6.505-3.58 0-3.994-3.5-3.994-6.15 0-1.85.368-6.15 3.778-6.15 3.6 0 4.14 3.63 4.14 5.792zM52.816 0h-1.672v9.194c-1.18-1.026-2.848-1.643-4.594-1.643-2.473 0-4.517 1-5.9 2.922-1.334 1.83-2.04 4.46-2.04 7.607 0 3.015.715 5.522 2.07 7.25 1.38 1.763 3.4 2.695 5.8 2.695 2.15 0 3.837-.63 5.033-1.874.378.876 1.297 1.518 2.282 1.518h2.1V3.013C55.883 1.352 54.507 0 52.816 0zM32.383 21.336c0 1.367-1.997 2.708-4.033 2.708-1.2 0-2.484-.747-2.484-1.86s.388-1.883 2.375-2.524c1.526-.5 2.927-.776 4.142-.953v2.63zm-10.2-7.475s5.012-2.092 7.444-2.092c.65 0 2.56 0 2.75 2.986-1.134.1-2.837.37-4.574.822-4.152 1.06-6.533 3.52-6.533 6.748 0 3.2 2.6 5.705 5.893 5.705 2.5 0 4.254-.532 5.55-1.706.495.83 1.464 1.423 2.415 1.423h1.9V13.883c0-3.534-3.008-6.097-7.25-6.097l-.443.003s-1.477-.006-3.56.552c0 0-2.876.736-3.154 2.6l-.427 2.9zM11.527 23.866c-1.385.095-2.532-.22-3.333-.912v-10.15l1.965-.34c3.07-.2 4.964 1.563 5.2 4.86.155 2.16-.447 6.3-3.834 6.54zm5.46-14.072c-1.872-1.5-4.5-2.168-7.568-1.96-1.407.096-4.695.8-6.302 1.167-1.715.38-2.18 1.292-2.4 2.398L0 15.023l5.308-1.576-1.56 2.033a3.36 3.36 0 0 0-.617 1.81V37l2.77-1.06c1.58-.56 2.295-1.934 2.295-3.283V28.03c1.074.4 2.42.588 3.832.492 2.6-.176 4.85-1.38 6.365-3.393 1.547-2.052 2.246-4.777 2.024-7.88-.238-3.325-1.392-5.833-3.428-7.455z" fill-rule="evenodd" fill="#fff"/><path d="M111.256 24.988h2.772c2.17 0 3.82-.616 4.95-1.848 1.13-1.247 1.694-2.904 1.694-4.972v-.176c0-2.04-.557-3.667-1.672-4.884s-2.78-1.826-4.994-1.826h-2.75v13.706zM110.024 26V10.27h4.092c2.508 0 4.437.72 5.786 2.156 1.364 1.423 2.046 3.278 2.046 5.566v.198c0 2.303-.675 4.18-2.024 5.632C118.59 25.274 116.64 26 114.072 26h-4.048zm19.46.176c-1.657 0-2.985-.535-3.982-1.606-.983-1.07-1.474-2.47-1.474-4.202v-.176c0-1.73.49-3.14 1.474-4.224.997-1.1 2.266-1.65 3.806-1.65 1.467 0 2.67.484 3.608 1.452.953.953 1.43 2.34 1.43 4.158v.418h-9.108c.03 1.555.403 2.75 1.122 3.586.733.836 1.775 1.254 3.124 1.254 2.01 0 3.212-.8 3.608-2.398h1.166c-.235 1.085-.777 1.92-1.628 2.508s-1.9.88-3.146.88zm-4.202-6.776h7.854c-.06-1.364-.425-2.383-1.1-3.058-.66-.69-1.57-1.034-2.728-1.034-1.115 0-2.04.374-2.772 1.122-.733.733-1.15 1.723-1.254 2.97zm14.846 6.6l-4.422-11.506h1.276l3.916 10.34 3.894-10.34h1.188L141.646 26h-1.518zm12.495.176c-1.658 0-2.985-.535-3.982-1.606-.983-1.07-1.474-2.47-1.474-4.202v-.176c0-1.73.49-3.14 1.474-4.224.997-1.1 2.266-1.65 3.806-1.65 1.466 0 2.67.484 3.608 1.452.953.953 1.43 2.34 1.43 4.158v.418h-9.108c.03 1.555.403 2.75 1.122 3.586.733.836 1.774 1.254 3.124 1.254 2.01 0 3.212-.8 3.608-2.398h1.166c-.235 1.085-.778 1.92-1.628 2.508s-1.9.88-3.146.88zM148.42 19.4h7.854c-.06-1.364-.426-2.383-1.1-3.058-.66-.69-1.57-1.034-2.728-1.034-1.115 0-2.04.374-2.772 1.122-.734.733-1.152 1.723-1.254 2.97zm11.83 6.6V8.994h1.188V26h-1.188zm9.54-.814c1.262 0 2.296-.44 3.102-1.32.822-.88 1.232-2.053 1.232-3.52v-.176c0-1.48-.4-2.662-1.232-3.542s-1.855-1.32-3.102-1.32c-1.26 0-2.302.447-3.124 1.342-.82.88-1.232 2.053-1.232 3.52v.176c0 1.452.404 2.625 1.2 3.52.822.88 1.87 1.32 3.146 1.32zm3.938-.638c-1.07 1.085-2.4 1.628-3.96 1.628s-2.89-.55-3.96-1.65c-1.056-1.1-1.584-2.493-1.584-4.18v-.176c0-1.7.536-3.102 1.606-4.202s2.39-1.65 3.96-1.65c1.584 0 2.904.543 3.96 1.628s1.584 2.486 1.584 4.202v.176c0 1.716-.535 3.124-1.606 4.224zm4.352 5.456v-15.5h1.166v2.684c.352-.792.924-1.467 1.716-2.024.807-.557 1.694-.836 2.662-.836 1.482 0 2.714.528 3.696 1.584s1.474 2.464 1.474 4.224v.176c0 1.775-.484 3.197-1.452 4.268s-2.207 1.606-3.718 1.606c-1.07 0-1.987-.264-2.75-.792-.748-.543-1.3-1.2-1.628-2.002v6.622h-1.166zm5.456-4.818c1.232 0 2.215-.425 2.948-1.276.734-.865 1.1-2.053 1.1-3.564v-.176c0-1.525-.388-2.713-1.166-3.564a3.74 3.74 0 0 0-2.904-1.298c-1.188 0-2.2.433-3.036 1.298s-1.254 2.053-1.254 3.564v.176c0 1.525.404 2.713 1.2 3.564.822.85 1.856 1.276 3.102 1.276zm12.613 1c-1.657 0-2.985-.535-3.982-1.606-.983-1.07-1.474-2.47-1.474-4.202v-.176c0-1.73.49-3.14 1.474-4.224.997-1.1 2.266-1.65 3.806-1.65 1.467 0 2.67.484 3.608 1.452.953.953 1.43 2.34 1.43 4.158v.418h-9.108c.03 1.555.403 2.75 1.122 3.586.733.836 1.775 1.254 3.124 1.254 2.01 0 3.212-.8 3.608-2.398h1.166c-.235 1.085-.777 1.92-1.628 2.508s-1.9.88-3.146.88zm-4.202-6.776h7.854c-.06-1.364-.425-2.383-1.1-3.058-.66-.69-1.57-1.034-2.728-1.034-1.115 0-2.04.374-2.772 1.122-.733.733-1.15 1.723-1.254 2.97zm11.786 6.6V14.494h1.166v2.42c.748-1.657 2.046-2.515 3.894-2.574v1.1c-2.596.103-3.894 1.496-3.894 4.18V26h-1.166z" fill="#fff"/></svg>