<svg width="26" height="26" viewBox="0 0 26 26" fill="none" xmlns="http://www.w3.org/2000/svg">
<g clip-path="url(#clip0)">
<path d="M13 0C5.838 0 0 5.838 0 13C0 20.163 5.838 26 13 26C19.555 26 25 21.112 25.875 14.781C25.912 14.5814 25.9081 14.3764 25.8636 14.1784C25.819 13.9804 25.7348 13.7935 25.6159 13.629C25.497 13.4645 25.346 13.3258 25.1719 13.2214C24.9979 13.1169 24.8045 13.0489 24.6034 13.0214C24.4023 12.9939 24.1977 13.0075 24.002 13.0614C23.8063 13.1153 23.6236 13.2083 23.4649 13.3348C23.3062 13.4614 23.1749 13.6188 23.0788 13.7976C22.9827 13.9764 22.9239 14.1728 22.906 14.375C22.233 19.245 18.071 23 13 23C7.46 23 3 18.541 3 13C3 7.46 7.46 3 13 3C16.236 3 19.109 4.535 20.938 6.906L19.156 8.688C19.006 8.838 18.967 9.079 19.031 9.281C19.091 9.483 19.26 9.613 19.469 9.656C22.166 10.186 25.276 9.952 25.406 9.937C25.5378 9.91326 25.6584 9.84768 25.75 9.75C25.84 9.662 25.92 9.57 25.938 9.437C25.953 9.307 26.188 6.17 25.656 3.469C25.6402 3.36844 25.5967 3.27425 25.5305 3.19692C25.4643 3.11959 25.3779 3.06215 25.281 3.031C25.077 2.969 24.837 3.006 24.688 3.156L23.063 4.781C20.678 1.87 17.047 0 13 0Z" fill="black"/>
</g>
<defs>
<clipPath id="clip0">
<rect width="26" height="26" fill="white"/>
</clipPath>
</defs>
</svg>
